# xmcd CD database file generated by OrangeCD 5.1
#
# Track frame offsets:
#	150
#	16305
#	29107
#	43612
#	56732
#	75460
#	90995
#	106295
#	124887
#	140125
#	156602
#	171477
#	187925
#
# Disc length: 2685 seconds
#
# Revision: 0
# Processed by: cddbd v1.4PL0 Copyright (c) Steve Scherf et al.
# Submitted via: OrangeCD 5.1
#
DISCID=b30a7b0d
DTITLE=KC and the Southside Rockers - All Night Long
DYEAR=2000
DGENRE=
TTITLE0=Love the One You're With
TTITLE1=I Thank You
TTITLE2=Sara Smile
TTITLE3=Highway 49
TTITLE4=The Thrill is Gone
TTITLE5=The Blues is Alright
TTITLE6=Brown Suggar
TTITLE7=It's Yo' Thing
TTITLE8=(I Got My) Mojo Workin'
TTITLE9=Jealous Kind
TTITLE10=Get Back
TTITLE11=Soon as I Get Paid
TTITLE12=Wang, Dang, Doodle
EXTD=
EXTT0=
EXTT1=
EXTT2=
EXTT3=
EXTT4=
EXTT5=
EXTT6=
EXTT7=
EXTT8=
EXTT9=
EXTT10=
EXTT11=
EXTT12=
PLAYORDER=
